# xmcd
#
# Track frame offsets: 
#        150
#        35235
#        82535
#        108167
#        148900
#        196950
#        256950
#        283680
#        301855
#
# Disc length: 4589 seconds
#
# Revision: 0
# Processed by: cddbd v1.5.2PL0 Copyright (c) Steve Scherf et al.
# Submitted via: ExactAudioCopy v1.0b1
#
DISCID=7611eb09
DTITLE=Jochum - Beethoven Symphony No.5 and 6 ,CD4
DYEAR=2005
DGENRE=Classical
TTITLE0=Sym No.5 in c, Op.67: 1. Allegro
TTITLE1=Sym No.5 in c, Op.67: 1. Allegro
TTITLE2=Sym No.5 in c, Op.67: 3. Allegro
TTITLE3=Sym No.5 in c, Op.67: 4. Allegro - Presto
TTITLE4=Sym No.6 in F, Op.68 'Pastorale': 1. Pleasant, Cheerful Feelin
TTITLE4=gs Awakened
TTITLE5=Sym No.6 in F, Op.68 'Pastorale': 2. Scene By The Brook: Andan
TTITLE5=te Molto Moto
TTITLE6=Sym No.6 in F, Op.68 'Pastorale': 3. Merry Gathering Of Countr
TTITLE6=y Folk: Allegro
TTITLE7=Sym No.6 in F, Op.68 'Pastorale': 4. Thunderstorm: Allegro
TTITLE8=Sym No.6 in F, Op.68 'Pastorale': 5. Shepherd's Song: Happy An
TTITLE8=d Thankful Feelings
EXTD=
EXTT0=
EXTT1=
EXTT2=
EXTT3=
EXTT4=
EXTT5=
EXTT6=
EXTT7=
EXTT8=
PLAYORDER=
